<?xml version="1.0" encoding="UTF-8" standalone="no"?>
<svg
   xmlns:dc="http://purl.org/dc/elements/1.1/"
   xmlns:cc="http://creativecommons.org/ns#"
   xmlns:rdf="http://www.w3.org/1999/02/22-rdf-syntax-ns#"
   xmlns:svg="http://www.w3.org/2000/svg"
   xmlns="http://www.w3.org/2000/svg"
   xmlns:sodipodi="http://sodipodi.sourceforge.net/DTD/sodipodi-0.dtd"
   xmlns:inkscape="http://www.inkscape.org/namespaces/inkscape"
   width="512"
   height="512"
   viewBox="0 0 512 512"
   version="1.1"
   id="svg6"
   sodipodi:docname="icon.svg"
   inkscape:export-filename="/media/dellevenjack/Projects/nodejs/chatApp/public/logo/icon.png"
   inkscape:export-xdpi="96"
   inkscape:export-ydpi="96"
   inkscape:version="0.92.4 (5da689c313, 2019-01-14)">
  <metadata
     id="metadata12">
    <rdf:RDF>
      <cc:Work
         rdf:about="">
        <dc:format>image/svg+xml</dc:format>
        <dc:type
           rdf:resource="http://purl.org/dc/dcmitype/StillImage" />
      </cc:Work>
    </rdf:RDF>
  </metadata>
  <defs
     id="defs10">
    <clipPath
       clipPathUnits="userSpaceOnUse"
       id="clipPath951">
      <g
         inkscape:label="Clip"
         id="use953">
        <g
           transform="matrix(21.857627,0,0,21.857627,-6.2915255,-6.2915255)"
           style="fill:#3399ff;fill-opacity:1"
           id="g1008">
          <path
             inkscape:connector-curvature="0"
             style="fill:#3399ff;fill-opacity:1"
             d="M 20,2 H 4 C 2.9,2 2,2.9 2,4 v 18 l 4,-4 h 14 c 1.1,0 2,-0.9 2,-2 V 4 C 22,2.9 21.1,2 20,2 Z"
             id="path1006" />
        </g>
        <g
           transform="translate(0.10169585,12.3566)"
           id="g1028">
          <g
             aria-label="CHAT"
             style="font-style:normal;font-weight:normal;font-size:74.66666412px;line-height:1.25;font-family:sans-serif;letter-spacing:0px;word-spacing:0px;fill:#ffffff;fill-opacity:1;stroke:none"
             id="g1018">
            <path
               inkscape:connector-curvature="0"
               d="m 150.90219,175.45109 q -3.86458,2.00521 -8.05729,3.02604 -4.19271,1.02084 -8.75,1.02084 -13.59895,0 -21.54687,-7.58334 -7.94792,-7.61979 -7.94792,-20.63541 0,-13.05209 7.94792,-20.63542 7.94792,-7.61979 21.54687,-7.61979 4.55729,0 8.75,1.02083 4.19271,1.02084 8.05729,3.02604 v 11.26563 q -3.90104,-2.66146 -7.6927,-3.90104 -3.79167,-1.23959 -7.98438,-1.23959 -7.51041,0 -11.8125,4.8125 -4.30208,4.8125 -4.30208,13.27084 0,8.42187 4.30208,13.23437 4.30209,4.8125 11.8125,4.8125 4.19271,0 7.98438,-1.23958 3.79166,-1.23959 7.6927,-3.90104 z"
               style="font-weight:bold;fill:#ffffff;fill-opacity:1"
               id="path1010" />
            <path
               inkscape:connector-curvature="0"
               d="m 162.56886,124.00838 h 14.03646 v 20.74479 h 20.70833 v -20.74479 h 14.03646 v 54.43229 h -14.03646 v -23.07812 h -20.70833 v 23.07812 h -14.03646 z"
               style="font-weight:bold;fill:#ffffff;fill-opacity:1"
               id="path1012" />
            <path
               inkscape:connector-curvature="0"
               d="m 258.16261,168.52401 h -21.94792 l -3.46354,9.91666 h -14.10938 l 20.16146,-54.43229 h 16.73438 l 20.16145,54.43229 h -14.10937 z m -18.44792,-10.09896 h 14.91146 l -7.4375,-21.65625 z"
               style="font-weight:bold;fill:#ffffff;fill-opacity:1"
               id="path1014" />
            <path
               inkscape:connector-curvature="0"
               d="m 270.55845,124.00838 h 50.16666 v 10.60938 h -18.04687 v 43.82291 h -14.03646 v -43.82291 h -18.08333 z"
               style="font-weight:bold;fill:#ffffff;fill-opacity:1"
               id="path1016" />
          </g>
          <g
             aria-label="APP"
             style="font-style:normal;font-weight:normal;font-size:74.66666412px;line-height:1.25;font-family:sans-serif;letter-spacing:0px;word-spacing:0px;fill:#ffffff;fill-opacity:1;stroke:none"
             id="g1026"
             transform="translate(5.5382183,-22.449085)">
            <path
               d="m 277.44474,251.50707 h -21.94791 l -3.46355,9.91667 h -14.10937 l 20.16146,-54.43229 h 16.73437 l 20.16146,54.43229 h -14.10938 z m -18.44791,-10.09896 h 14.91145 l -7.4375,-21.65625 z"
               style="font-weight:bold;fill:#ffffff;fill-opacity:1"
               id="path1020"
               inkscape:connector-curvature="0" />
            <path
               d="m 302.16349,206.99145 h 23.29687 q 10.39063,0 15.93229,4.6302 5.57813,4.59375 5.57813,13.125 0,8.56771 -5.57813,13.19792 -5.54166,4.59375 -15.93229,4.59375 h -9.26041 v 18.88542 h -14.03646 z m 14.03646,10.17187 v 15.20313 h 7.76562 q 4.08333,0 6.30729,-1.96875 2.22396,-2.00521 2.22396,-5.65105 0,-3.64583 -2.22396,-5.61458 -2.22396,-1.96875 -6.30729,-1.96875 z"
               style="font-weight:bold;fill:#ffffff;fill-opacity:1"
               id="path1022"
               inkscape:connector-curvature="0" />
            <path
               d="m 356.85099,206.99145 h 23.29688 q 10.39062,0 15.93229,4.6302 5.57812,4.59375 5.57812,13.125 0,8.56771 -5.57812,13.19792 -5.54167,4.59375 -15.93229,4.59375 h -9.26042 v 18.88542 h -14.03646 z m 14.03646,10.17187 v 15.20313 h 7.76563 q 4.08333,0 6.30729,-1.96875 2.22395,-2.00521 2.22395,-5.65105 0,-3.64583 -2.22395,-5.61458 -2.22396,-1.96875 -6.30729,-1.96875 z"
               style="font-weight:bold;fill:#ffffff;fill-opacity:1"
               id="path1024"
               inkscape:connector-curvature="0" />
          </g>
        </g>
      </g>
    </clipPath>
    <filter
       style="color-interpolation-filters:sRGB;"
       inkscape:label="Drop Shadow"
       id="filter1054">
      <feFlood
         flood-opacity="0.498039"
         flood-color="rgb(0,0,0)"
         result="flood"
         id="feFlood1044" />
      <feComposite
         in="flood"
         in2="SourceGraphic"
         operator="in"
         result="composite1"
         id="feComposite1046" />
      <feGaussianBlur
         in="composite1"
         stdDeviation="8.2"
         result="blur"
         id="feGaussianBlur1048" />
      <feOffset
         dx="1"
         dy="0.5"
         result="offset"
         id="feOffset1050" />
      <feComposite
         in="SourceGraphic"
         in2="offset"
         operator="over"
         result="composite2"
         id="feComposite1052" />
    </filter>
  </defs>
  <sodipodi:namedview
     pagecolor="#ffffff"
     bordercolor="#666666"
     borderopacity="1"
     objecttolerance="10"
     gridtolerance="10"
     guidetolerance="10"
     inkscape:pageopacity="0"
     inkscape:pageshadow="2"
     inkscape:window-width="1920"
     inkscape:window-height="1026"
     id="namedview8"
     showgrid="false"
     inkscape:zoom="0.61458333"
     inkscape:cx="-17.275244"
     inkscape:cy="469.70437"
     inkscape:window-x="0"
     inkscape:window-y="0"
     inkscape:window-maximized="1"
     inkscape:current-layer="svg6" />
  <path
     d="m -2,490 h 24 v 24 H -2 Z"
     id="path4"
     inkscape:connector-curvature="0"
     style="fill:none" />
  <g
     transform="matrix(21.857627,0,0,21.857627,-6.2915255,-6.2915255)"
     style="fill:#3399ff;fill-opacity:1"
     id="g823">
    <path
       inkscape:connector-curvature="0"
       style="fill:#3399ff;fill-opacity:1"
       d="M 20,2 H 4 C 2.9,2 2,2.9 2,4 v 18 l 4,-4 h 14 c 1.1,0 2,-0.9 2,-2 V 4 C 22,2.9 21.1,2 20,2 Z"
       id="path2" />
  </g>
  <g
     transform="translate(0.10169585,12.3566)"
     id="g889"
     style="filter:url(#filter1054)">
    <g
       aria-label="CHAT"
       style="font-style:normal;font-weight:normal;font-size:74.66666412px;line-height:1.25;font-family:sans-serif;letter-spacing:0px;word-spacing:0px;fill:#ffffff;fill-opacity:1;stroke:none"
       id="text827">
      <path
         inkscape:connector-curvature="0"
         d="m 150.90219,175.45109 q -3.86458,2.00521 -8.05729,3.02604 -4.19271,1.02084 -8.75,1.02084 -13.59895,0 -21.54687,-7.58334 -7.94792,-7.61979 -7.94792,-20.63541 0,-13.05209 7.94792,-20.63542 7.94792,-7.61979 21.54687,-7.61979 4.55729,0 8.75,1.02083 4.19271,1.02084 8.05729,3.02604 v 11.26563 q -3.90104,-2.66146 -7.6927,-3.90104 -3.79167,-1.23959 -7.98438,-1.23959 -7.51041,0 -11.8125,4.8125 -4.30208,4.8125 -4.30208,13.27084 0,8.42187 4.30208,13.23437 4.30209,4.8125 11.8125,4.8125 4.19271,0 7.98438,-1.23958 3.79166,-1.23959 7.6927,-3.90104 z"
         style="font-weight:bold;fill:#ffffff;fill-opacity:1"
         id="path833" />
      <path
         inkscape:connector-curvature="0"
         d="m 162.56886,124.00838 h 14.03646 v 20.74479 h 20.70833 v -20.74479 h 14.03646 v 54.43229 h -14.03646 v -23.07812 h -20.70833 v 23.07812 h -14.03646 z"
         style="font-weight:bold;fill:#ffffff;fill-opacity:1"
         id="path835" />
      <path
         inkscape:connector-curvature="0"
         d="m 258.16261,168.52401 h -21.94792 l -3.46354,9.91666 h -14.10938 l 20.16146,-54.43229 h 16.73438 l 20.16145,54.43229 h -14.10937 z m -18.44792,-10.09896 h 14.91146 l -7.4375,-21.65625 z"
         style="font-weight:bold;fill:#ffffff;fill-opacity:1"
         id="path837" />
      <path
         inkscape:connector-curvature="0"
         d="m 270.55845,124.00838 h 50.16666 v 10.60938 h -18.04687 v 43.82291 h -14.03646 v -43.82291 h -18.08333 z"
         style="font-weight:bold;fill:#ffffff;fill-opacity:1"
         id="path839" />
    </g>
    <g
       aria-label="APP"
       style="font-style:normal;font-weight:normal;font-size:74.66666412px;line-height:1.25;font-family:sans-serif;letter-spacing:0px;word-spacing:0px;fill:#ffffff;fill-opacity:1;stroke:none"
       id="text871"
       transform="translate(5.5382183,-22.449085)">
      <path
         d="m 277.44474,251.50707 h -21.94791 l -3.46355,9.91667 h -14.10937 l 20.16146,-54.43229 h 16.73437 l 20.16146,54.43229 h -14.10938 z m -18.44791,-10.09896 h 14.91145 l -7.4375,-21.65625 z"
         style="font-weight:bold;fill:#ffffff;fill-opacity:1"
         id="path873"
         inkscape:connector-curvature="0" />
      <path
         d="m 302.16349,206.99145 h 23.29687 q 10.39063,0 15.93229,4.6302 5.57813,4.59375 5.57813,13.125 0,8.56771 -5.57813,13.19792 -5.54166,4.59375 -15.93229,4.59375 h -9.26041 v 18.88542 h -14.03646 z m 14.03646,10.17187 v 15.20313 h 7.76562 q 4.08333,0 6.30729,-1.96875 2.22396,-2.00521 2.22396,-5.65105 0,-3.64583 -2.22396,-5.61458 -2.22396,-1.96875 -6.30729,-1.96875 z"
         style="font-weight:bold;fill:#ffffff;fill-opacity:1"
         id="path875"
         inkscape:connector-curvature="0" />
      <path
         d="m 356.85099,206.99145 h 23.29688 q 10.39062,0 15.93229,4.6302 5.57812,4.59375 5.57812,13.125 0,8.56771 -5.57812,13.19792 -5.54167,4.59375 -15.93229,4.59375 h -9.26042 v 18.88542 h -14.03646 z m 14.03646,10.17187 v 15.20313 h 7.76563 q 4.08333,0 6.30729,-1.96875 2.22395,-2.00521 2.22395,-5.65105 0,-3.64583 -2.22395,-5.61458 -2.22396,-1.96875 -6.30729,-1.96875 z"
         style="font-weight:bold;fill:#ffffff;fill-opacity:1"
         id="path877"
         inkscape:connector-curvature="0" />
    </g>
  </g>
</svg>
